<mxfile host="app.diagrams.net" modified="2021-08-16T08:56:56.375Z" agent="5.0 (Windows NT 10.0; Win64; x64) AppleWebKit/537.36 (KHTML, like Gecko) Chrome/91.0.4472.124 Safari/537.36" etag="eHbRP_2nOMeQBFnh4bW2" version="14.9.6" type="github">
  <diagram id="kt6DTYqpTYrn9F6qmWx3" name="Page-1">
    <mxGraphModel dx="1422" dy="762" grid="0" gridSize="10" guides="1" tooltips="1" connect="1" arrows="1" fold="1" page="1" pageScale="1" pageWidth="827" pageHeight="1169" math="0" shadow="0">
      <root>
        <mxCell id="0" />
        <mxCell id="1" parent="0" />
        <mxCell id="yzeiQHKdrXfGPjh7JLTs-7" style="edgeStyle=orthogonalEdgeStyle;orthogonalLoop=1;jettySize=auto;html=1;exitX=0.5;exitY=1;exitDx=0;exitDy=0;entryX=0.5;entryY=0;entryDx=0;entryDy=0;strokeColor=#736CA8;fontColor=#1A1A1A;" edge="1" parent="1" source="yzeiQHKdrXfGPjh7JLTs-1" target="yzeiQHKdrXfGPjh7JLTs-3">
          <mxGeometry relative="1" as="geometry" />
        </mxCell>
        <mxCell id="yzeiQHKdrXfGPjh7JLTs-22" style="edgeStyle=orthogonalEdgeStyle;orthogonalLoop=1;jettySize=auto;html=1;exitX=1;exitY=0.5;exitDx=0;exitDy=0;entryX=0;entryY=0.123;entryDx=0;entryDy=0;entryPerimeter=0;strokeColor=#736CA8;fontColor=#1A1A1A;" edge="1" parent="1" source="yzeiQHKdrXfGPjh7JLTs-1" target="yzeiQHKdrXfGPjh7JLTs-21">
          <mxGeometry relative="1" as="geometry">
            <Array as="points">
              <mxPoint x="777" y="349" />
            </Array>
          </mxGeometry>
        </mxCell>
        <mxCell id="yzeiQHKdrXfGPjh7JLTs-23" value="&lt;font style=&quot;font-size: 18px&quot;&gt;访问&lt;/font&gt;" style="edgeLabel;html=1;align=center;verticalAlign=middle;resizable=0;points=[];fontColor=#1A1A1A;" vertex="1" connectable="0" parent="yzeiQHKdrXfGPjh7JLTs-22">
          <mxGeometry x="-0.2474" y="2" relative="1" as="geometry">
            <mxPoint x="11" y="-11" as="offset" />
          </mxGeometry>
        </mxCell>
        <mxCell id="yzeiQHKdrXfGPjh7JLTs-1" value="&lt;font style=&quot;font-size: 24px&quot;&gt;支付模块&lt;/font&gt;" style="whiteSpace=wrap;html=1;fillColor=#fff2cc;strokeColor=#d6b656;" vertex="1" parent="1">
          <mxGeometry x="213" y="328" width="416" height="42" as="geometry" />
        </mxCell>
        <mxCell id="yzeiQHKdrXfGPjh7JLTs-8" style="edgeStyle=orthogonalEdgeStyle;orthogonalLoop=1;jettySize=auto;html=1;exitX=0.5;exitY=1;exitDx=0;exitDy=0;strokeColor=#736CA8;fontColor=#1A1A1A;" edge="1" parent="1" source="yzeiQHKdrXfGPjh7JLTs-3" target="yzeiQHKdrXfGPjh7JLTs-9">
          <mxGeometry relative="1" as="geometry">
            <mxPoint x="423" y="502" as="targetPoint" />
          </mxGeometry>
        </mxCell>
        <mxCell id="yzeiQHKdrXfGPjh7JLTs-3" value="&lt;font style=&quot;font-size: 18px&quot;&gt;日志汇&lt;/font&gt;" style="whiteSpace=wrap;html=1;fillColor=#ffcc99;strokeColor=#36393d;" vertex="1" parent="1">
          <mxGeometry x="365" y="433" width="115" height="34" as="geometry" />
        </mxCell>
        <mxCell id="yzeiQHKdrXfGPjh7JLTs-5" value="&lt;font style=&quot;font-size: 18px&quot;&gt;含有sql耗时的gorm日志&lt;/font&gt;" style="text;html=1;strokeColor=none;fillColor=none;align=center;verticalAlign=middle;whiteSpace=wrap;fontColor=#1A1A1A;" vertex="1" parent="1">
          <mxGeometry x="333" y="393" width="225" height="17" as="geometry" />
        </mxCell>
        <mxCell id="yzeiQHKdrXfGPjh7JLTs-10" style="edgeStyle=orthogonalEdgeStyle;orthogonalLoop=1;jettySize=auto;html=1;exitX=0.5;exitY=1;exitDx=0;exitDy=0;strokeColor=#736CA8;fontColor=#1A1A1A;" edge="1" parent="1" source="yzeiQHKdrXfGPjh7JLTs-9" target="yzeiQHKdrXfGPjh7JLTs-11">
          <mxGeometry relative="1" as="geometry">
            <mxPoint x="423" y="592" as="targetPoint" />
          </mxGeometry>
        </mxCell>
        <mxCell id="yzeiQHKdrXfGPjh7JLTs-9" value="&lt;font style=&quot;font-size: 18px&quot;&gt;数据格式化算子&lt;/font&gt;" style="ellipse;whiteSpace=wrap;html=1;fillColor=#f5f5f5;strokeColor=#666666;fontColor=#333333;" vertex="1" parent="1">
          <mxGeometry x="343.25" y="509" width="158.5" height="49" as="geometry" />
        </mxCell>
        <mxCell id="yzeiQHKdrXfGPjh7JLTs-12" style="edgeStyle=orthogonalEdgeStyle;orthogonalLoop=1;jettySize=auto;html=1;exitX=0.5;exitY=1;exitDx=0;exitDy=0;strokeColor=#736CA8;fontColor=#1A1A1A;" edge="1" parent="1" source="yzeiQHKdrXfGPjh7JLTs-11">
          <mxGeometry relative="1" as="geometry">
            <mxPoint x="422.5" y="659" as="targetPoint" />
          </mxGeometry>
        </mxCell>
        <mxCell id="yzeiQHKdrXfGPjh7JLTs-11" value="&lt;font style=&quot;font-size: 18px&quot;&gt;数据过滤算子&lt;/font&gt;" style="ellipse;whiteSpace=wrap;html=1;fillColor=#f5f5f5;strokeColor=#666666;fontColor=#333333;" vertex="1" parent="1">
          <mxGeometry x="321.75" y="581" width="201.5" height="44" as="geometry" />
        </mxCell>
        <mxCell id="yzeiQHKdrXfGPjh7JLTs-14" value="监控宝" style="whiteSpace=wrap;html=1;fillColor=#d5e8d4;strokeColor=#82b366;" vertex="1" parent="1">
          <mxGeometry x="204" y="659" width="450" height="43" as="geometry" />
        </mxCell>
        <mxCell id="yzeiQHKdrXfGPjh7JLTs-17" value="通知" style="edgeStyle=orthogonalEdgeStyle;orthogonalLoop=1;jettySize=auto;html=1;exitX=0.5;exitY=1;exitDx=0;exitDy=0;strokeColor=#736CA8;fontColor=#1A1A1A;" edge="1" parent="1" source="yzeiQHKdrXfGPjh7JLTs-15">
          <mxGeometry x="0.0083" y="5" relative="1" as="geometry">
            <mxPoint x="260" y="771" as="targetPoint" />
            <mxPoint as="offset" />
          </mxGeometry>
        </mxCell>
        <mxCell id="yzeiQHKdrXfGPjh7JLTs-15" value="配置告警" style="ellipse;whiteSpace=wrap;html=1;fillColor=#e1d5e7;strokeColor=#9673a6;" vertex="1" parent="1">
          <mxGeometry x="227" y="661.5" width="65" height="38" as="geometry" />
        </mxCell>
        <mxCell id="yzeiQHKdrXfGPjh7JLTs-16" value="生成慢sql耗时视图" style="ellipse;whiteSpace=wrap;html=1;fillColor=#e1d5e7;strokeColor=#9673a6;" vertex="1" parent="1">
          <mxGeometry x="495" y="666" width="122" height="26" as="geometry" />
        </mxCell>
        <mxCell id="yzeiQHKdrXfGPjh7JLTs-19" value="主动查看" style="edgeStyle=orthogonalEdgeStyle;orthogonalLoop=1;jettySize=auto;html=1;exitX=0.716;exitY=-0.025;exitDx=0;exitDy=0;exitPerimeter=0;strokeColor=#736CA8;fontColor=#1A1A1A;" edge="1" parent="1" source="yzeiQHKdrXfGPjh7JLTs-18" target="yzeiQHKdrXfGPjh7JLTs-16">
          <mxGeometry relative="1" as="geometry">
            <Array as="points">
              <mxPoint x="556" y="769" />
            </Array>
          </mxGeometry>
        </mxCell>
        <mxCell id="yzeiQHKdrXfGPjh7JLTs-26" value="&lt;font style=&quot;font-size: 18px&quot;&gt;优化sql&lt;/font&gt;" style="edgeStyle=orthogonalEdgeStyle;orthogonalLoop=1;jettySize=auto;html=1;exitX=1;exitY=0.5;exitDx=0;exitDy=0;strokeColor=#736CA8;fontColor=#1A1A1A;" edge="1" parent="1" source="yzeiQHKdrXfGPjh7JLTs-18">
          <mxGeometry relative="1" as="geometry">
            <mxPoint x="780" y="791" as="targetPoint" />
          </mxGeometry>
        </mxCell>
        <mxCell id="yzeiQHKdrXfGPjh7JLTs-18" value="&lt;font style=&quot;font-size: 24px&quot;&gt;研发&lt;/font&gt;" style="whiteSpace=wrap;html=1;fillColor=#ffcccc;strokeColor=#36393d;" vertex="1" parent="1">
          <mxGeometry x="191" y="770" width="475" height="41" as="geometry" />
        </mxCell>
        <mxCell id="yzeiQHKdrXfGPjh7JLTs-21" value="&lt;font style=&quot;font-size: 18px&quot;&gt;数据库&lt;/font&gt;" style="whiteSpace=wrap;html=1;fillColor=#b0e3e6;strokeColor=#0e8088;" vertex="1" parent="1">
          <mxGeometry x="777" y="274" width="38" height="535" as="geometry" />
        </mxCell>
      </root>
    </mxGraphModel>
  </diagram>
</mxfile>
